# xmcd
#
# Track frame offsets: 
#        150
#        14999
#        31141
#        48075
#        76734
#        94060
#
# Disc length: 1446 seconds
#
# Revision: 0
# Processed by: cddbd v1.5.2PL0 Copyright (c) Steve Scherf et al.
# Submitted via: ExactAudioCopy v0.99pb5
#
DISCID=3c05a406
DTITLE=MrJordanMrTonks - Decenber
DYEAR=2012
DGENRE=Acoustic
TTITLE0=Your Brain Remains
TTITLE1=Across the Great Divide
TTITLE2=Pearl of Them All
TTITLE3=Louisiana Truckstop
TTITLE4=Spell My Name
TTITLE5=Don't Jump the Gun
EXTD=
EXTT0=
EXTT1=
EXTT2=
EXTT3=
EXTT4=
EXTT5=
PLAYORDER=
